<?xml version="1.0" encoding="UTF-8" standalone="no"?><!DOCTYPE svg PUBLIC "-//W3C//DTD SVG 1.1//EN" "http://www.w3.org/Graphics/SVG/1.1/DTD/svg11.dtd"><svg width="100%" height="100%" viewBox="0 0 1596 457" version="1.1" xmlns="http://www.w3.org/2000/svg" xmlns:xlink="http://www.w3.org/1999/xlink" xml:space="preserve" style="fill-rule:evenodd;clip-rule:evenodd;stroke-linecap:round;stroke-linejoin:round;stroke-miterlimit:10;"><path d="M204.928,443.494l0,-150.047l81.941,47.31c-9.375,45.853 -40.406,83.818 -81.941,102.737" style="fill:#7bd062;fill-rule:nonzero;"/><path d="M250.523,185.572l-155.05,89.515l0,-195.046c27.119,-46.463 49.429,-80.041 49.429,-80.041c0,0 62.709,94.375 105.621,185.572" style="fill:#0065a6;fill-rule:nonzero;"/><path d="M194.327,447.827c-15.422,5.6 -32.069,8.65 -49.425,8.65c-29.937,0 -57.747,-9.069 -80.84,-24.629l83.493,-48.2c0.075,-0.04 0.163,-0.096 0.25,-0.14l46.522,-26.866l0,91.185Z" style="fill:#0dd062;fill-rule:nonzero;"/><path d="M54.725,425.001c-33.35,-26.547 -54.725,-67.494 -54.725,-113.431c0,-3.125 0.156,-6.388 0.469,-9.778l133.834,77.272l-79.578,45.937Z" style="fill:#009184;fill-rule:nonzero;"/><path d="M84.875,338.283l-82.888,-47.859c9.138,-53.25 47.994,-130.522 82.888,-191.978l0,239.837Z" style="fill:#06a9d7;fill-rule:nonzero;"/><path d="M288.7,329.576l-133.197,-76.903l99.491,-57.444c20.075,44.05 34.813,86.532 34.813,116.341c0,6.097 -0.375,12.106 -1.107,18.006" style="fill:#5dd1e6;fill-rule:nonzero;"/><path d="M363.322,197.26l48.832,151.463l47.784,-115.113" style="fill:none;stroke-width:13.23px;stroke:#007ab0;"/><path d="M452.006,201.087l49.881,148.55l49.881,-151.834" style="fill:none;stroke-width:13.23px;stroke:#007ab0;"/><path d="M1340.54,197.26l50.05,152.588l46.565,-116.238" style="fill:none;stroke-width:13.23px;stroke:#007ab0;"/><path d="M1429.22,201.087l49.881,148.55l49.881,-151.834" style="fill:none;stroke-width:13.23px;stroke:#007ab0;"/><path d="M716.302,158.997l0,154.01c0,0 -3.753,30.237 32.525,32.525c26.785,1.687 33.479,-17.219 33.479,-17.219" style="fill:none;stroke-width:13.23px;stroke:#007ab0;"/><path d="M687.884,202.322l81.988,0" style="fill:none;stroke-width:13.23px;stroke:#007ab0;"/><path d="M578.554,211.501c0,0 19.447,-21 57.394,-11.994c21.047,4.994 30.612,22.31 30.612,78.066c0,55.753 -0.225,67.291 -0.225,67.291" style="fill:none;stroke-width:13.23px;stroke:#007ab0;"/><path d="M664.647,270.917c0,0 -86.65,-13.093 -91.153,30.288c-4.507,43.384 33.759,44.325 41.409,44.325l50.7,0" style="fill:none;stroke-width:13.23px;stroke:#007ab0;"/><path d="M912.403,326.4c0,0 -16.741,25.828 -67.441,16.741c-65.478,-11.738 -75.181,-137.916 12.915,-141.097c60.716,-2.194 68.875,68.875 45.438,69.353c-25.038,0.512 -104.747,0 -104.747,0" style="fill:none;stroke-width:13.23px;stroke:#007ab0;"/><path d="M1043.26,201.087l49.881,148.55l49.881,-151.834" style="fill:none;stroke-width:13.23px;stroke:#007ab0;"/><path d="M1178.3,197.26l0,153.335" style="fill:none;stroke-width:13.23px;stroke:#007ab0;"/><path d="M945.148,197.26l0,153.335" style="fill:none;stroke-width:13.23px;stroke:#007ab0;"/><path d="M1017.59,201.855c0,0 -72.16,-7.094 -72.16,57.637" style="fill:none;stroke-width:13.23px;stroke:#007ab0;"/><path d="M1327.69,326.4c0,0 -16.741,25.828 -67.441,16.741c-65.478,-11.738 -75.181,-137.916 12.916,-141.097c60.715,-2.194 68.875,68.875 45.437,69.353c-25.037,0.512 -104.747,0 -104.747,0" style="fill:none;stroke-width:13.23px;stroke:#007ab0;"/></svg>