<?xml version="1.0" encoding="UTF-8" standalone="no"?>
<!DOCTYPE svg PUBLIC "-//W3C//DTD SVG 1.1//EN" "http://www.w3.org/Graphics/SVG/1.1/DTD/svg11.dtd">
<svg width="100%" height="100%" viewBox="0 0 101 100" version="1.1" xmlns="http://www.w3.org/2000/svg" xmlns:xlink="http://www.w3.org/1999/xlink" xml:space="preserve" xmlns:serif="http://www.serif.com/" style="fill-rule:evenodd;clip-rule:evenodd;stroke-linejoin:round;stroke-miterlimit:2;">
    <g transform="matrix(1,0,0,1,-147,-50)">
        <g transform="matrix(1,0,0,0.333333,0,0)">
            <g id="POLYGON" transform="matrix(5,0,0,15,137.962,120)">
                <path d="M2,2L2,8L4.28,8L5.57,16L4,16L4,22L10,22L10,20.06L15,20.05L15,22L21,22L21,16L19.17,16L20,9L22,9L22,3L16,3L16,6.53L14.8,8L9.59,8L8,5.82L8,2M4,4L6,4L6,6L4,6M18,5L20,5L20,7L18,7M6.31,8L7.11,8L9,10.59L9,14L15,14L15,10.91L16.57,9L18,9L17.16,16L15,16L15,18.06L10,18.06L10,16L7.6,16M11,10L13,10L13,12L11,12M6,18L8,18L8,20L6,20M17,18L19,18L19,20L17,20" style="fill-rule:nonzero;"/>
            </g>
        </g>
    </g>
</svg>
