<?xml version="1.0" encoding="UTF-8" standalone="no"?>
<!DOCTYPE svg PUBLIC "-//W3C//DTD SVG 1.1//EN" "http://www.w3.org/Graphics/SVG/1.1/DTD/svg11.dtd">
<svg width="100%" height="100%" viewBox="0 0 123 100" version="1.1" xmlns="http://www.w3.org/2000/svg" xmlns:xlink="http://www.w3.org/1999/xlink" xml:space="preserve" xmlns:serif="http://www.serif.com/" style="fill-rule:evenodd;clip-rule:evenodd;stroke-linejoin:round;stroke-miterlimit:2;">
    <g transform="matrix(1,0,0,1,-299,-50)">
        <g transform="matrix(1,0,0,0.333333,0,0)">
            <g id="RECTANGLE" transform="matrix(5,0,0,15,289,120)">
                <path d="M2,2L8,2L8,4L20.6,4L20.6,2L26.6,2L26.6,8L24.6,8L24.6,16L26.6,16L26.6,22L20.6,22L20.6,20L8,20L8,22L2,22L2,16L4,16L4,8L2,8L2,2M20.6,8L20.6,6L8,6L8,8L6,8L6,16L8,16L8,18L20.6,18L20.6,16L22.6,16L22.6,8L20.6,8M4,4L4,6L6,6L6,4L4,4M22.6,4L22.6,6L24.6,6L24.6,4L22.6,4M4,18L4,20L6,20L6,18L4,18M22.6,18L22.6,20L24.6,20L24.6,18L22.6,18Z" style="fill-rule:nonzero;"/>
            </g>
        </g>
    </g>
</svg>
